<svg width="188" height="57" viewBox="0 0 188 57" fill="none" xmlns="http://www.w3.org/2000/svg">
<g clip-path="url(#clip0_2_3)">
<path d="M128.288 42.3494V23.8633C128.26 23.6606 128.279 23.4542 128.343 23.2599C128.407 23.0655 128.515 22.8883 128.658 22.7418C128.801 22.5953 128.975 22.4834 129.168 22.4145C129.361 22.3456 129.567 22.3216 129.771 22.3443H135.093C142.216 22.3443 144.292 24.3646 144.292 27.8886C144.292 30.7367 143.015 32.3316 140.316 32.8405C143.463 33.2506 145.007 34.762 145.007 37.9063C145.007 41.5215 142.627 43.8076 135.42 43.8076H129.756C129.559 43.8262 129.361 43.8014 129.175 43.7348C128.989 43.6682 128.82 43.5615 128.68 43.4223C128.539 43.2831 128.432 43.1148 128.364 42.9294C128.297 42.744 128.271 42.5459 128.288 42.3494ZM135.131 31.5646C139.016 31.5646 140.681 30.676 140.681 28.3063C140.681 26.0279 139.373 25.3747 135.039 25.3747H131.74V31.5646H135.131ZM135.397 40.8684C139.7 40.8684 141.388 39.8962 141.388 37.6101C141.388 35.0886 139.936 34.2911 135.458 34.2911H131.656V40.8684H135.397Z" fill="#7A7A7A"/>
<path d="M147.782 33.1367C147.782 25.4886 152.556 22.1393 157.924 22.1393C163.291 22.1393 168.043 25.4886 168.043 33.1367C168.043 40.9291 163.238 44.157 157.863 44.157C152.488 44.157 147.782 40.9291 147.782 33.1367ZM164.599 33.1367C164.599 28.1848 161.991 25.2532 157.924 25.2532C153.856 25.2532 151.157 28.1544 151.157 33.1367C151.157 38.119 153.681 41.0506 157.863 41.0506C162.044 41.0506 164.599 38.2025 164.599 33.1367Z" fill="#7A7A7A"/>
<path d="M169.997 42.0304L176.839 32.4835L170.833 24.1899C170.118 23.1797 170.476 22.3747 171.593 22.3747H172.544C172.895 22.369 173.242 22.4558 173.548 22.6265C173.855 22.7972 174.112 23.0456 174.292 23.3468L178.854 29.757L183.332 23.362C183.507 23.0587 183.76 22.8073 184.065 22.6338C184.369 22.4603 184.715 22.3709 185.065 22.3747H185.894C187.11 22.3747 187.521 23.2025 186.814 24.1899L180.815 32.4835L187.658 42.0304C188.38 43.0329 188.046 43.838 186.898 43.838H185.978C185.626 43.857 185.276 43.7818 184.963 43.6202C184.65 43.4587 184.386 43.2166 184.199 42.919L178.824 35.324L173.456 42.919C173.267 43.2155 173.003 43.4567 172.691 43.6181C172.378 43.7795 172.028 43.8554 171.677 43.838H170.742C169.617 43.838 169.29 43.0329 169.997 42.0304Z" fill="#7A7A7A"/>
<path d="M62.5552 33.1367C62.5552 25.4886 67.4513 22.2456 72.9101 22.2456C78.3688 22.2456 83.2041 25.4886 83.2041 33.1367C83.2041 40.9291 78.308 44.0127 72.8492 44.0127C67.3905 44.0127 62.5552 40.9291 62.5552 33.1367ZM76.0272 33.1367C76.0272 30.0987 74.6587 28.481 72.8492 28.481C71.0398 28.481 69.6485 30.1139 69.6485 33.1367C69.6485 36.3342 70.9486 37.876 72.8492 37.876C74.7499 37.876 76.0272 36.3038 76.0272 33.1063V33.1367Z" fill="#7A7A7A"/>
<path d="M86.7622 40.8684V25.3443C86.7622 23.4152 87.8038 22.3747 89.7273 22.3747H93.9392C102.371 22.3747 104.743 25.4886 104.743 31.0633C104.743 36.638 102.371 39.5317 94.0304 39.5317H93.9696V40.8608C93.9696 42.7899 92.9356 43.8304 91.0045 43.8304H89.7273C87.8038 43.838 86.7622 42.7975 86.7622 40.8684ZM95.2468 33.4937C97.0259 33.4937 97.3832 32.1874 97.3832 30.9418C97.3832 29.6962 97.0259 28.481 95.2468 28.481H93.9696V33.4937H95.2468Z" fill="#7A7A7A"/>
<path d="M122.898 43.838H121.621C120.856 43.903 120.095 43.6805 119.486 43.2141C118.877 42.7477 118.464 42.071 118.329 41.3165L118.26 41.081H112.178L112.11 41.3165C111.982 42.075 111.572 42.757 110.961 43.225C110.35 43.693 109.584 43.912 108.818 43.838H107.518C105.351 43.838 104.401 42.4709 105.115 40.4279L110.658 24.7823C110.851 24.0492 111.295 23.407 111.913 22.9672C112.531 22.5274 113.284 22.3177 114.041 22.3747H116.322C117.078 22.3177 117.831 22.5274 118.449 22.9672C119.067 23.407 119.511 24.0492 119.705 24.7823L125.255 40.4279C126.045 42.4709 125.065 43.838 122.898 43.838ZM116.915 36.243L115.212 30.1671L113.531 36.243H116.915Z" fill="#7A7A7A"/>
<path d="M13.0311 57H10.6438C7.82089 57 5.1136 55.8798 3.1175 53.8857C1.1214 51.8916 0 49.1871 0 46.3671V42.8962C4.02626 47.8806 8.37953 52.5922 13.0311 57Z" fill="#7A7A7A"/>
<path d="M16.2698 43.3291C16.0267 43.5337 15.7209 43.6489 15.4031 43.6557C15.2475 43.6613 15.0923 43.6355 14.9469 43.5797C14.7996 43.5236 14.6651 43.4384 14.5516 43.3291C14.0878 42.9038 3.0867 32.6962 1.52815 25.9215V25.7164C1.34854 24.8187 1.25939 23.9053 1.26205 22.9899C1.38252 19.3175 2.92755 15.8357 5.57064 13.2804C8.21373 10.7252 11.7478 9.29657 15.4259 9.29657C19.1041 9.29657 22.6381 10.7252 25.2812 13.2804C27.9243 15.8357 29.4693 19.3175 29.5898 22.9899C29.5683 23.9699 29.4435 24.9449 29.2172 25.8987V26.0734C27.7195 32.7342 16.7184 42.8886 16.2698 43.3291Z" fill="#7A7A7A"/>
<path d="M57.0584 10.6709V46.3671C57.0584 49.1871 55.937 51.8916 53.9409 53.8857C51.9448 55.8797 49.2375 57 46.4146 57H17.5775C21.2648 53.4607 36.7059 38.2937 39.1084 28.0253V27.7215C39.4818 26.0737 39.6781 24.3907 39.6938 22.7013C39.6938 11.962 32.2583 2.85568 22.1011 0.0379639H46.4298C49.2501 0.0419887 51.9535 1.16402 53.9463 3.15764C55.9391 5.15126 57.0584 7.85348 57.0584 10.6709Z" fill="#7A7A7A"/>
<path d="M29.2172 25.9139V26.0886C27.6967 32.7342 16.7184 42.8886 16.2926 43.3443C16.0495 43.5489 15.7437 43.6641 15.4259 43.6709C15.2703 43.6765 15.1151 43.6507 14.9697 43.5949C14.8224 43.5388 14.688 43.4536 14.5744 43.3443C14.1106 42.919 3.10951 32.7114 1.55095 25.9367V25.7316C1.37135 24.8339 1.2822 23.9205 1.28486 23.0051C1.40532 19.3327 2.95036 15.8509 5.59345 13.2956C8.23653 10.7404 11.7706 9.31177 15.4487 9.31177C19.1269 9.31177 22.6609 10.7404 25.304 13.2956C27.9471 15.8509 29.4921 19.3327 29.6126 23.0051C29.5837 23.9859 29.4512 24.9609 29.2172 25.9139Z" fill="#7A7A7A"/>
</g>
<defs>
<clipPath id="clip0_2_3">
<rect width="188" height="57" fill="white"/>
</clipPath>
</defs>
</svg>
